<svg xmlns="http://www.w3.org/2000/svg" version="1.1" xmlns:xlink="http://www.w3.org/1999/xlink" xmlns:svgjs="http://svgjs.dev/svgjs" width="1000" height="1000" viewBox="0 0 1000 1000"><rect width="1000" height="1000" fill="#000000"></rect><g transform="matrix(0.7,0,0,0.7,149.84897959183667,150.19913061224486)"><svg viewBox="0 0 343 343" data-background-color="#ffffff" preserveAspectRatio="xMidYMid meet" height="999" width="1000" xmlns="http://www.w3.org/2000/svg" xmlns:xlink="http://www.w3.org/1999/xlink"><g id="tight-bounds" transform="matrix(1,0,0,1,0.0740000000000407,0.07400000000001228)"><svg viewBox="0 0 342.85155851775386 342.85155851775386" height="342.85155851775386" width="342.85155851775386"><g><svg></svg></g><g><svg viewBox="0 0 342.85155851775386 342.85155851775386" height="342.85155851775386" width="342.85155851775386"><g><path d="M0 171.426c0-94.676 76.75-171.426 171.426-171.426 94.676 0 171.426 76.75 171.426 171.426 0 94.676-76.75 171.426-171.426 171.426-94.676 0-171.426-76.75-171.426-171.426zM171.426 340.867c93.58 0 169.441-75.861 169.441-169.441 0-93.58-75.861-169.441-169.441-169.441-93.58 0-169.441 75.861-169.441 169.441 0 93.58 75.861 169.441 169.441 169.441z" data-fill-palette-color="tertiary" fill="#ffffff" stroke="transparent"></path><ellipse rx="164.56874808852186" ry="164.56874808852186" cx="171.42577925887693" cy="171.42577925887693" fill="#ffffff" stroke="transparent" stroke-width="0" fill-opacity="1" data-fill-palette-color="tertiary"></ellipse></g><g transform="matrix(1,0,0,1,64.84655864529837,127.40208273643204)"><svg viewBox="0 0 213.1584412271571 88.04739304488979" height="88.04739304488979" width="213.1584412271571"><g><svg viewBox="0 0 213.1584412271571 88.04739304488979" height="88.04739304488979" width="213.1584412271571"><g><svg viewBox="0 0 213.1584412271571 88.04739304488979" height="88.04739304488979" width="213.1584412271571"><g transform="matrix(1,0,0,1,0,66.03596300083818)"><svg viewBox="0 0 213.1584412271571 22.01143004405161" height="22.01143004405161" width="213.1584412271571"><g id="textblocktransform"><svg viewBox="0 0 213.1584412271571 22.01143004405161" height="22.01143004405161" width="213.1584412271571" id="textblock"><g><svg viewBox="0 0 213.1584412271571 22.01143004405161" height="22.01143004405161" width="213.1584412271571"><g transform="matrix(1,0,0,1,0,0)"><svg width="213.1584412271571" viewBox="3.9000000953674316 -35.099998474121094 344.7099914550781 35.599998474121094" height="22.01143004405161" data-palette-color="#ffffff"><path d="M16.25-32.25Q21.3-32.25 24.03-29.7 26.75-27.15 26.75-22.4L26.75-22.4Q26.75-18.75 25.15-16.03 23.55-13.3 20.58-11.8 17.6-10.3 13.6-10.3L13.6-10.3 10.4-10.3 10.4-10.2 10.7 0 3.9 0 4.25-9.6 3.9-32.2 16.25-32.25ZM15.1-15.25Q19.7-16.55 19.7-21.8L19.7-21.8Q19.7-24.5 18.32-25.83 16.95-27.15 14.1-27.25L14.1-27.25 10.7-27.05 10.5-15.45 15.1-15.25ZM38.7-23.7Q42.55-23.7 44.72-21.98 46.9-20.25 46.9-17.15L46.9-17.15Q46.9-16.25 46.6-11.45L46.6-11.45Q46.55-10.05 46.45-8.58 46.35-7.1 46.35-6.05L46.35-6.05Q46.35-5.2 46.6-4.88 46.85-4.55 47.5-4.55L47.5-4.55Q48-4.55 48.8-4.75L48.8-4.75 49.3-4.35 48.7-0.85Q47.1 0.2 45.05 0.4L45.05 0.4Q43.55 0.25 42.55-0.68 41.55-1.6 41.2-3.25L41.2-3.25 40.85-3.25Q38.35-0.6 35.7 0.45L35.7 0.45Q32.1 0.4 30.05-1.45 28-3.3 28-6.5L28-6.5Q28-9 29.27-10.43 30.55-11.85 33.15-12.35L33.15-12.35 40.8-13.8 40.8-15.85Q40.8-19.1 37.6-19.1L37.6-19.1Q36.05-19.1 34.32-18.4 32.6-17.7 30.45-16.2L30.45-16.2 29.95-16.5 29.2-20.9Q31.35-22.25 33.8-22.98 36.25-23.7 38.7-23.7L38.7-23.7ZM40.75-10.45L35.45-9.3Q34.65-9.1 34.27-8.63 33.9-8.15 33.9-7.2L33.9-7.2Q33.9-5.9 34.6-5.18 35.3-4.45 36.55-4.45L36.55-4.45Q38.5-4.45 40.65-6.75L40.65-6.75 40.75-10.45ZM61.4-23.65Q64.8-23.65 67.8-22.5L67.8-22.5 66.9-17.6 66.09-17.35Q64.65-18.3 63.2-18.8 61.75-19.3 60.65-19.3L60.65-19.3Q59.45-19.3 58.75-18.68 58.05-18.05 58.05-17.15L58.05-17.15Q58.05-16.1 58.97-15.45 59.9-14.8 61.9-14L61.9-14Q63.9-13.2 65.2-12.45 66.5-11.7 67.42-10.38 68.34-9.05 68.34-7.1L68.34-7.1Q68.34-5.1 67.32-3.38 66.3-1.65 64.2-0.58 62.09 0.5 59.05 0.5L59.05 0.5Q55.45 0.5 51.59-1L51.59-1 52.34-6.2 53-6.6Q54.55-5.3 56.45-4.53 58.34-3.75 59.8-3.75L59.8-3.75Q61.15-3.75 61.9-4.42 62.65-5.1 62.65-6.05L62.65-6.05Q62.65-7.1 61.72-7.75 60.8-8.4 58.8-9.2L58.8-9.2Q56.75-10.1 55.45-10.83 54.15-11.55 53.22-12.9 52.3-14.25 52.3-16.25L52.3-16.25Q52.3-19.5 54.75-21.58 57.2-23.65 61.4-23.65L61.4-23.65ZM80.59-23.65Q83.99-23.65 86.99-22.5L86.99-22.5 86.09-17.6 85.29-17.35Q83.84-18.3 82.39-18.8 80.94-19.3 79.84-19.3L79.84-19.3Q78.64-19.3 77.94-18.68 77.24-18.05 77.24-17.15L77.24-17.15Q77.24-16.1 78.17-15.45 79.09-14.8 81.09-14L81.09-14Q83.09-13.2 84.39-12.45 85.69-11.7 86.62-10.38 87.54-9.05 87.54-7.1L87.54-7.1Q87.54-5.1 86.52-3.38 85.49-1.65 83.39-0.58 81.29 0.5 78.24 0.5L78.24 0.5Q74.64 0.5 70.79-1L70.79-1 71.54-6.2 72.19-6.6Q73.74-5.3 75.64-4.53 77.54-3.75 78.99-3.75L78.99-3.75Q80.34-3.75 81.09-4.42 81.84-5.1 81.84-6.05L81.84-6.05Q81.84-7.1 80.92-7.75 79.99-8.4 77.99-9.2L77.99-9.2Q75.94-10.1 74.64-10.83 73.34-11.55 72.42-12.9 71.49-14.25 71.49-16.25L71.49-16.25Q71.49-19.5 73.94-21.58 76.39-23.65 80.59-23.65L80.59-23.65ZM95.64-23.4L96.19-19.75 99.04-6.7 99.44-6.7 102.94-19.4 103.74-23.25 110.19-23.25 110.69-19.75 113.64-6.75 114.04-6.75 117.44-19.4 118.24-23.25 123.84-23.25 116.59 0 110.34 0 106.79-14.95 106.34-14.95 102.19 0 95.64 0 89.59-23.1 95.64-23.4ZM135.94-23.7Q141.04-23.7 143.74-20.7 146.44-17.7 146.44-12.05L146.44-12.05Q146.44-5.95 143.54-2.73 140.64 0.5 135.19 0.5L135.19 0.5Q130.09 0.5 127.39-2.5 124.69-5.5 124.69-11.15L124.69-11.15Q124.69-17.25 127.59-20.48 130.49-23.7 135.94-23.7L135.94-23.7ZM135.49-19.2Q133.09-19.2 132.01-17.6 130.94-16 130.94-12.45L130.94-12.45Q130.94-7.85 132.04-5.9 133.14-3.95 135.64-3.95L135.64-3.95Q138.04-3.95 139.11-5.53 140.19-7.1 140.19-10.7L140.19-10.7Q140.19-15.25 139.06-17.23 137.94-19.2 135.49-19.2L135.49-19.2ZM163.53-23.3Q163.98-23.3 164.78-23.2L164.78-23.2 164.78-17.05 164.08-16.8Q163.23-17.15 162.23-17.15L162.23-17.15Q159.33-17.15 156.98-13.4L156.98-13.4 156.98-10.25 157.33 0 150.69 0 151.08-9.6 150.78-22.8 157.08-23.35 157.03-18.8 157.44-18.8Q159.88-23.3 163.53-23.3L163.53-23.3ZM187.88-35.1L187.48-10.25 187.63-6.05Q187.63-5.2 187.86-4.88 188.08-4.55 188.68-4.55L188.68-4.55Q189.23-4.55 190.03-4.75L190.03-4.75 190.48-4.35 189.93-0.85Q188.23 0.2 186.23 0.4L186.23 0.4Q184.68 0.25 183.63-0.65 182.58-1.55 182.18-3.1L182.18-3.1 181.78-3.1Q179.33-0.85 176.78 0.35L176.78 0.35Q171.88 0.35 169.18-2.78 166.48-5.9 166.48-11.45L166.48-11.45Q166.48-17.35 169.58-20.5 172.68-23.65 178.18-23.65L178.18-23.65Q179.63-23.65 181.38-23.35L181.38-23.35 181.28-34.6 187.88-35.1ZM177.73-19.15Q172.73-19.15 172.73-12.8L172.73-12.8Q172.73-8.85 173.93-6.85 175.13-4.85 177.43-4.85L177.43-4.85Q179.63-4.85 181.48-6.9L181.48-6.9 181.58-9.65 181.43-18.25Q179.48-19.15 177.73-19.15L177.73-19.15ZM215.68-32.6Q220.38-32.6 224.13-30.65L224.13-30.65 222.93-25 222.38-24.75Q220.88-25.8 219.08-26.4 217.28-27 215.38-27L215.38-27Q207.43-27 207.43-16.55L207.43-16.55Q207.43-10.9 209.5-8.08 211.58-5.25 215.58-5.25L215.58-5.25Q217.43-5.25 219.4-5.83 221.38-6.4 222.98-7.4L222.98-7.4 223.58-7.05 223.03-1.3Q219.23 0.45 215.03 0.45L215.03 0.45Q207.83 0.45 204.05-3.75 200.28-7.95 200.28-15.8L200.28-15.8Q200.28-23.8 204.3-28.2 208.33-32.6 215.68-32.6L215.68-32.6ZM239.83-23.3Q240.28-23.3 241.08-23.2L241.08-23.2 241.08-17.05 240.38-16.8Q239.53-17.15 238.53-17.15L238.53-17.15Q235.63-17.15 233.28-13.4L233.28-13.4 233.28-10.25 233.63 0 226.98 0 227.38-9.6 227.08-22.8 233.38-23.35 233.33-18.8 233.73-18.8Q236.18-23.3 239.83-23.3L239.83-23.3ZM253.02-23.7Q256.87-23.7 259.05-21.98 261.22-20.25 261.22-17.15L261.22-17.15Q261.22-16.25 260.92-11.45L260.92-11.45Q260.87-10.05 260.77-8.58 260.67-7.1 260.67-6.05L260.67-6.05Q260.67-5.2 260.92-4.88 261.17-4.55 261.82-4.55L261.82-4.55Q262.32-4.55 263.12-4.75L263.12-4.75 263.62-4.35 263.02-0.85Q261.42 0.2 259.37 0.4L259.37 0.4Q257.87 0.25 256.87-0.68 255.87-1.6 255.52-3.25L255.52-3.25 255.17-3.25Q252.67-0.6 250.02 0.45L250.02 0.45Q246.42 0.4 244.37-1.45 242.32-3.3 242.32-6.5L242.32-6.5Q242.32-9 243.6-10.43 244.87-11.85 247.47-12.35L247.47-12.35 255.12-13.8 255.12-15.85Q255.12-19.1 251.92-19.1L251.92-19.1Q250.37-19.1 248.65-18.4 246.92-17.7 244.77-16.2L244.77-16.2 244.27-16.5 243.52-20.9Q245.67-22.25 248.12-22.98 250.57-23.7 253.02-23.7L253.02-23.7ZM255.07-10.45L249.77-9.3Q248.97-9.1 248.6-8.63 248.22-8.15 248.22-7.2L248.22-7.2Q248.22-5.9 248.92-5.18 249.62-4.45 250.87-4.45L250.87-4.45Q252.82-4.45 254.97-6.75L254.97-6.75 255.07-10.45ZM277.47-23.7Q279.12-23.7 280.75-23.38 282.37-23.05 283.62-22.45L283.62-22.45 282.52-17.15 281.97-16.9Q279.42-18.3 277.42-18.3L277.42-18.3Q275.12-18.3 273.87-16.65 272.62-15 272.62-11.95L272.62-11.95Q272.62-8.45 273.97-6.6 275.32-4.75 277.82-4.75L277.82-4.75Q280.07-4.75 282.82-6L282.82-6 283.32-5.6 282.67-0.45Q279.67 0.5 276.52 0.5L276.52 0.5Q271.72 0.5 269.02-2.63 266.32-5.75 266.32-11.35L266.32-11.35Q266.32-17.15 269.27-20.43 272.22-23.7 277.47-23.7L277.47-23.7ZM293.87-35.1L293.47-10.25 293.82 0 287.17 0 287.52-9.65 287.22-34.6 293.87-35.1ZM307.82-23.25L300.22-12.75Q302.92-8.4 308.32-1.1L308.32-1.1 308.27-0.4Q306.52 0 304.54 0.23 302.57 0.45 302.12 0.5L302.12 0.5 301.42 0.2Q297.02-6 293.82-12.15L293.82-12.15 293.82-12.6 299.62-20.85 300.82-23.25 307.82-23.25ZM329.67-11.6L328.92-10.8 315.42-10.7Q315.87-4.45 321.76-4.45L321.76-4.45Q324.87-4.45 328.67-6.2L328.67-6.2 329.22-5.85 328.22-0.9Q324.42 0.5 321.06 0.5L321.06 0.5Q315.56 0.5 312.44-2.7 309.31-5.9 309.31-11.55L309.31-11.55Q309.31-17.15 312.37-20.43 315.42-23.7 320.62-23.7L320.62-23.7Q325.06-23.7 327.49-21.28 329.92-18.85 329.92-14.5L329.92-14.5Q329.92-13.35 329.67-11.6L329.67-11.6ZM324.01-14.55L324.12-15.25Q324.12-17.25 323.22-18.28 322.31-19.3 320.56-19.3L320.56-19.3Q318.62-19.3 317.31-18.03 316.01-16.75 315.56-14.35L315.56-14.35 324.01-14.55ZM347.36-23.3Q347.81-23.3 348.61-23.2L348.61-23.2 348.61-17.05 347.91-16.8Q347.06-17.15 346.06-17.15L346.06-17.15Q343.16-17.15 340.81-13.4L340.81-13.4 340.81-10.25 341.16 0 334.51 0 334.91-9.6 334.61-22.8 340.91-23.35 340.86-18.8 341.26-18.8Q343.71-23.3 347.36-23.3L347.36-23.3Z" opacity="1" transform="matrix(1,0,0,1,0,0)" fill="#000000" class="undefined-text-0" data-fill-palette-color="quaternary" id="text-0"></path></svg></g></svg></g></svg></g></svg></g><g transform="matrix(1,0,0,1,76.15942429269923,0)"><svg viewBox="0 0 60.83959264175866 60.83959264175866" height="60.83959264175866" width="60.83959264175866"><g><svg version="1.1" xmlns:dc="http://purl.org/dc/elements/1.1/" xmlns:inkscape="http://www.inkscape.org/namespaces/inkscape" xmlns:rdf="http://www.w3.org/1999/02/22-rdf-syntax-ns#" xmlns:cc="http://creativecommons.org/ns#" xmlns:svg="http://www.w3.org/2000/svg" xmlns:sodipodi="http://sodipodi.sourceforge.net/DTD/sodipodi-0.dtd" xmlns="http://www.w3.org/2000/svg" xmlns:xlink="http://www.w3.org/1999/xlink" x="0" y="0" viewBox="0 0 100 100" enable-background="new 0 0 100 100" xml:space="preserve" height="60.83959264175866" width="60.83959264175866" class="icon-icon-0" data-fill-palette-color="quaternary" id="icon-0"><path d="M50 0C22.386 0 0 22.386 0 50s22.386 50 50 50 50-22.386 50-50S77.614 0 50 0zM50 14.156c19.799 0 35.844 16.044 35.844 35.844 0 19.799-16.045 35.844-35.844 35.844-19.799 0-35.844-16.045-35.844-35.844C14.156 30.201 30.201 14.156 50 14.156zM50 20.125c-16.505 0-29.875 13.37-29.875 29.875S33.495 79.875 50 79.875 79.875 66.505 79.875 50 66.505 20.125 50 20.125zM50 29.75c11.178 0 20.25 9.072 20.25 20.25S61.178 70.25 50 70.25 29.75 61.178 29.75 50 38.822 29.75 50 29.75z" fill="#000000" data-fill-palette-color="quaternary"></path></svg></g></svg></g><g></g></svg></g></svg></g></svg></g></svg></g><defs></defs></svg><rect width="342.85155851775386" height="342.85155851775386" fill="none" stroke="none" visibility="hidden"></rect></g></svg></g></svg>